<svg width="90" height="90" viewBox="0 0 90 90" fill="none" xmlns="http://www.w3.org/2000/svg">
<rect x="1" y="1" width="88" height="88" rx="6" fill="#F8F8F8" stroke="black" stroke-width="2"/>
<rect x="65.425" y="76.6018" width="64.925" height="8.1125" transform="rotate(-180 65.425 76.6018)" fill="#D2D1FF" stroke="black"/>
<rect x="76.6018" y="24.4625" width="64.925" height="8.1125" transform="rotate(90 76.6018 24.4625)" fill="#FFD5BE" stroke="black"/>
<path d="M64.926 69.0838C66.2933 67.3535 68.2785 65.6546 69.1001 65.0214C70.6849 63.6515 72.4038 64.0979 73.0652 64.4923C73.3787 64.4536 74.8979 65.8467 75.6184 66.5481L78.2826 66.6341C79.6846 67.776 79.0005 68.9372 78.4832 69.3751L76.1389 69.7345L79.2737 69.9074C81.4664 71.1153 80.0845 72.3371 79.1195 72.797L76.0584 72.8399L78.6686 73.2358C79.9554 74.7321 78.8877 75.7419 78.1931 76.0597C77.7867 76.1647 76.606 76.2018 76.0664 76.2073L76.9226 76.4183C77.2104 76.4652 77.3905 76.7954 77.4446 76.9547C77.9472 78.3544 76.9687 79.0524 76.4166 79.2265L69.2301 79.1827C67.3964 79.1025 65.8673 77.7231 65.3319 77.0434C63.5959 74.2892 64.338 70.5894 64.926 69.0838Z" fill="#FFC4A3"/>
<path d="M72.9541 66.4621L75.6184 66.5481M75.6184 66.5481L78.2826 66.6341C79.6846 67.776 79.0005 68.9372 78.4832 69.3751L76.1389 69.7345L79.2737 69.9074C81.4664 71.1153 80.0845 72.3371 79.1195 72.797L76.0584 72.8399L78.6686 73.2358C79.9553 74.7321 78.8877 75.7419 78.1931 76.0597C77.7867 76.1647 76.606 76.2018 76.0664 76.2073L76.9226 76.4183C77.2104 76.4652 77.3905 76.7954 77.4446 76.9547C77.9472 78.3544 76.9687 79.0524 76.4166 79.2265L69.2301 79.1827C67.3964 79.1025 65.8673 77.7231 65.3319 77.0434C63.5959 74.2892 64.338 70.5894 64.926 69.0838C66.2933 67.3535 68.2785 65.6546 69.1001 65.0214C70.6849 63.6515 72.4038 64.0979 73.0652 64.4923C73.3787 64.4536 74.8979 65.8467 75.6184 66.5481Z" stroke="black"/>
<rect x="24.575" y="13.325" width="64.925" height="8.1125" fill="#FFD1FA" stroke="black"/>
<path d="M69.0839 24.9614C67.3536 23.5941 65.6547 21.609 65.0215 20.7873C63.6516 19.2025 64.098 17.4836 64.4924 16.8223C64.4537 16.5088 65.8468 14.9895 66.5482 14.2691L66.6342 11.6048C67.7762 10.2028 68.9374 10.8869 69.3752 11.4042L69.7346 13.7486L69.9075 10.6137C71.1155 8.42106 72.3373 9.80296 72.7972 10.768L72.84 13.829L73.2359 11.2188C74.7322 9.9321 75.742 10.9997 76.0598 11.6944C76.1648 12.1008 76.2019 13.2815 76.2074 13.821L76.4184 12.9648C76.4653 12.6771 76.7955 12.4969 76.9548 12.4429C78.3545 11.9403 79.0526 12.9188 79.2266 13.4708L79.1828 20.6573C79.1027 22.491 77.7232 24.0202 77.0435 24.5555C74.2893 26.2916 70.5895 25.5495 69.0839 24.9614Z" fill="#FFC4A3"/>
<path d="M66.4622 16.9334L66.5482 14.2691M66.5482 14.2691L66.6342 11.6048C67.7762 10.2028 68.9374 10.8869 69.3752 11.4042L69.7346 13.7486L69.9075 10.6137C71.1155 8.42106 72.3373 9.80296 72.7972 10.768L72.84 13.829L73.2359 11.2188C74.7322 9.9321 75.742 10.9997 76.0598 11.6944C76.1648 12.1008 76.2019 13.2815 76.2074 13.821L76.4184 12.9648C76.4653 12.6771 76.7955 12.4969 76.9548 12.4429C78.3545 11.9403 79.0526 12.9188 79.2266 13.4708L79.1828 20.6573C79.1027 22.491 77.7232 24.0202 77.0435 24.5555C74.2893 26.2916 70.5895 25.5495 69.0839 24.9614C67.3536 23.5941 65.6547 21.609 65.0215 20.7873C63.6516 19.2025 64.098 17.4836 64.4924 16.8223C64.4537 16.5088 65.8468 14.9895 66.5482 14.2691Z" stroke="black"/>
<rect x="13.55" y="65.425" width="64.925" height="8.1125" transform="rotate(-90 13.55 65.425)" fill="#C2E2FF" stroke="black"/>
<path d="M21.068 64.926C22.7983 66.2933 24.4971 68.2785 25.1303 69.1001C26.5002 70.6849 26.0539 72.4038 25.6595 73.0652C25.6982 73.3787 24.3051 74.8979 23.6037 75.6184L23.5177 78.2826C22.3757 79.6846 21.2145 79.0005 20.7766 78.4832L20.4172 76.1389L20.2443 79.2737C19.0364 81.4664 17.8146 80.0845 17.3547 79.1195L17.3118 76.0584L16.9159 78.6686C15.4196 79.9554 14.4099 78.8877 14.092 78.1931C13.9871 77.7867 13.9499 76.606 13.9445 76.0664L13.7334 76.9226C13.6865 77.2104 13.3563 77.3905 13.1971 77.4446C11.7973 77.9472 11.0993 76.9687 10.9253 76.4166L10.9691 69.2301C11.0492 67.3964 12.4286 65.8673 13.1083 65.3319C15.8625 63.5959 19.5623 64.338 21.068 64.926Z" fill="#FFC4A3"/>
<path d="M23.6897 72.9541L23.6037 75.6184M23.6037 75.6184L23.5177 78.2826C22.3757 79.6846 21.2145 79.0005 20.7766 78.4832L20.4172 76.1389L20.2443 79.2737C19.0364 81.4664 17.8146 80.0845 17.3547 79.1195L17.3118 76.0584L16.9159 78.6686C15.4196 79.9553 14.4099 78.8877 14.092 78.1931C13.9871 77.7867 13.9499 76.606 13.9445 76.0664L13.7334 76.9226C13.6865 77.2104 13.3563 77.3905 13.1971 77.4446C11.7973 77.9472 11.0993 76.9687 10.9253 76.4166L10.9691 69.2301C11.0492 67.3964 12.4286 65.8673 13.1083 65.3319C15.8625 63.5959 19.5623 64.338 21.068 64.926C22.7983 66.2933 24.4971 68.2785 25.1303 69.1001C26.5002 70.6849 26.0539 72.4038 25.6595 73.0652C25.6982 73.3787 24.3051 74.8979 23.6037 75.6184Z" stroke="black"/>
<path d="M25.074 20.843C23.7067 22.5733 21.7215 24.2722 20.8999 24.9053C19.3151 26.2753 17.5962 25.8289 16.9348 25.4345C16.6213 25.4732 15.1021 24.0801 14.3816 23.3787L11.7174 23.2927C10.3154 22.1507 10.9995 20.9895 11.5168 20.5516L13.8611 20.1923L10.7263 20.0193C8.5336 18.8114 9.91551 17.5896 10.8805 17.1297L13.9416 17.0869L11.3314 16.6909C10.0446 15.1946 11.1123 14.1849 11.8069 13.867C12.2133 13.7621 13.394 13.7249 13.9336 13.7195L13.0774 13.5084C12.7896 13.4616 12.6095 13.1314 12.5554 12.9721C12.0528 11.5723 13.0313 10.8743 13.5834 10.7003L20.7699 10.7441C22.6036 10.8242 24.1327 12.2036 24.6681 12.8833C26.4041 15.6375 25.662 19.3374 25.074 20.843Z" fill="#FFC4A3"/>
<path d="M17.0459 23.4647L14.3816 23.3787M14.3816 23.3787L11.7174 23.2927C10.3154 22.1507 10.9995 20.9895 11.5168 20.5516L13.8611 20.1923L10.7263 20.0193C8.5336 18.8114 9.91551 17.5896 10.8805 17.1297L13.9416 17.0869L11.3314 16.6909C10.0447 15.1946 11.1123 14.1849 11.8069 13.867C12.2133 13.7621 13.394 13.7249 13.9336 13.7195L13.0774 13.5084C12.7896 13.4616 12.6095 13.1314 12.5554 12.9721C12.0528 11.5723 13.0313 10.8743 13.5834 10.7003L20.7699 10.7441C22.6036 10.8242 24.1327 12.2036 24.6681 12.8833C26.4041 15.6375 25.662 19.3374 25.074 20.843C23.7067 22.5733 21.7215 24.2722 20.8999 24.9053C19.3151 26.2753 17.5962 25.8289 16.9348 25.4345C16.6213 25.4732 15.1021 24.0801 14.3816 23.3787Z" stroke="black"/>
<path d="M38.3191 31.6182C39.982 33.1962 42.7322 32.3026 43.15 30.0486C43.6331 27.4427 47.3669 27.4427 47.85 30.0486C48.2678 32.3026 51.018 33.1962 52.6809 31.6182C54.6034 29.794 57.6242 31.9887 56.4833 34.3808C55.4965 36.45 57.1962 38.7894 59.469 38.4903C62.0966 38.1444 63.2504 41.6955 60.9214 42.9602C58.9068 44.0542 58.9068 46.9458 60.9214 48.0398C63.2504 49.3045 62.0966 52.8556 59.469 52.5097C57.1962 52.2106 55.4965 54.55 56.4833 56.6192C57.6242 59.0113 54.6034 61.206 52.6809 59.3818C51.018 57.8038 48.2678 58.6974 47.85 60.9514C47.3669 63.5573 43.6331 63.5573 43.15 60.9514C42.7322 58.6974 39.982 57.8038 38.3191 59.3818C36.3966 61.206 33.3758 59.0113 34.5167 56.6192C35.5035 54.55 33.8038 52.2106 31.531 52.5097C28.9034 52.8556 27.7496 49.3045 30.0786 48.0398C32.0932 46.9458 32.0932 44.0542 30.0786 42.9602C27.7496 41.6955 28.9034 38.1444 31.531 38.4903C33.8038 38.7894 35.5035 36.45 34.5167 34.3808C33.3758 31.9887 36.3966 29.794 38.3191 31.6182Z" fill="#ECEBFF" stroke="#06007C" stroke-width="0.5"/>
<path d="M50.2301 54.6551L46.033 39.6121C45.7628 38.6435 44.3927 38.6348 44.1101 39.5998L39.7017 54.6551L42.1359 47.9252C42.2371 47.6454 42.4576 47.4253 42.7375 47.3245L51.1965 44.2792" stroke="#06007C"/>
</svg>
